<?xml version="1.0" standalone="no"?>
<!DOCTYPE svg PUBLIC "-//W3C//DTD SVG 20010904//EN"
 "http://www.w3.org/TR/2001/REC-SVG-20010904/DTD/svg10.dtd">
<svg version="1.0" xmlns="http://www.w3.org/2000/svg"
 width="1280.000000pt" height="1280.000000pt" viewBox="0 0 1280.000000 1280.000000"
 preserveAspectRatio="xMidYMid meet">
<metadata>
Created by potrace 1.15, written by Peter Selinger 2001-2017
</metadata>
<g transform="translate(0.000000,1280.000000) scale(0.100000,-0.100000)"
fill="#e23a3a" stroke="none">
<path d="M2479 12009 c-87 -13 -312 -66 -397 -95 -284 -94 -596 -324 -786
-578 -177 -236 -246 -384 -311 -666 -19 -80 -39 -189 -44 -242 -15 -133 -15
-7896 -1 -8022 24 -209 99 -472 179 -630 105 -206 294 -437 466 -571 230 -179
389 -258 654 -325 258 -65 -91 -60 4296 -60 4372 0 4031 -5 4290 59 230 57
372 121 569 259 234 164 428 390 556 647 92 185 158 422 180 647 7 69 10 1412
7 4058 -3 3717 -4 3960 -20 4040 -73 350 -141 521 -304 752 -104 149 -224 273
-364 377 -217 163 -371 237 -609 297 -279 69 80 64 -4320 63 -2192 -1 -4010
-5 -4041 -10z m7354 -1429 c260 -30 537 -213 677 -448 57 -97 107 -225 120
-307 7 -49 10 -1075 8 -3425 l-3 -3355 -29 -75 c-102 -269 -258 -450 -481
-560 -123 -60 -177 -78 -274 -91 -50 -6 -1237 -9 -3401 -7 l-3325 3 -104 37
c-304 109 -510 316 -618 623 l-28 80 0 3390 0 3390 23 70 c57 169 135 295 254
411 91 89 164 140 272 189 101 45 166 65 244 75 103 12 6560 12 6665 0z"/>
<path d="M6245 10065 c-803 -108 -1498 -614 -1885 -1371 -173 -336 -287 -771
-303 -1154 l-2 -55 -286 -3 c-276 -2 -287 -3 -305 -23 -19 -21 -19 -75 -19
-2116 l0 -2095 24 -19 c23 -19 85 -19 3066 -19 2981 0 3043 0 3066 19 l24 19
0 2096 c0 1997 -1 2096 -18 2113 -16 16 -47 19 -305 23 l-287 5 -2 55 c-38
911 -534 1766 -1282 2211 -250 149 -517 247 -816 300 -153 27 -516 35 -670 14z
m540 -1210 c254 -55 480 -180 665 -365 250 -251 397 -571 435 -947 l6 -63
-1356 0 -1356 0 6 58 c14 126 27 201 50 287 107 396 376 736 721 912 140 71
269 112 439 137 60 9 322 -4 390 -19z m-71 -2429 c164 -75 272 -229 296 -420
21 -165 -32 -322 -153 -454 l-67 -72 0 -570 0 -570 -260 0 -260 0 0 573 0 572
-63 66 c-109 115 -157 233 -157 389 0 150 47 272 144 377 137 148 343 191 520
109z"/>
</g>
</svg>
